<svg width="99" height="90" viewBox="0 0 99 90" fill="none" xmlns="http://www.w3.org/2000/svg">
<path fill-rule="evenodd" clip-rule="evenodd" d="M38.8839 77.0988C33.0104 72.2462 22.4281 68.5463 14.2243 66.9851L26.6081 20.765C43.4484 24.9932 59.9157 29.2812 64.1921 13.3051L67.2548 1.8825C67.3615 1.49487 67.617 1.16506 67.9656 0.964842C68.3143 0.764623 68.7279 0.710198 69.1164 0.813394L74.4257 2.24271C76.2215 2.72622 77.7527 3.90116 78.6845 5.51058C79.6164 7.11999 79.873 9.03292 79.3983 10.831L74.774 28.0793C74.5431 28.9522 74.6676 29.8809 75.1201 30.6621C75.5727 31.4433 76.3164 32.0134 77.1883 32.2474L93.2954 36.5716C95.0842 37.0641 96.6057 38.244 97.5277 39.8541C98.4498 41.4641 98.6976 43.3735 98.2171 45.1655C97.7366 46.9576 96.5668 48.4869 94.9629 49.4197C93.3591 50.3524 91.4514 50.613 89.6562 50.1444L91.6258 50.6728C92.5232 50.9068 93.3654 51.3161 94.1039 51.8769C94.8425 52.4378 95.4628 53.1392 95.9292 53.9407C96.3956 54.7423 96.6988 55.6282 96.8214 56.5474C96.944 57.4667 96.8836 58.4011 96.6436 59.2969C96.4037 60.1927 95.9889 61.0321 95.4232 61.767C94.8574 62.5018 94.1519 63.1175 93.3473 63.5785C92.5427 64.0396 91.6548 64.337 90.7348 64.4535C89.8147 64.57 88.8807 64.5034 87.9866 64.2575L84.5151 63.3207C85.4124 63.5548 86.2546 63.964 86.9932 64.5249C87.7317 65.0857 88.3521 65.7871 88.8184 66.5887C89.2848 67.3902 89.5881 68.2761 89.7107 69.1954C89.8333 70.1146 89.7729 71.049 89.5329 71.9448C89.2929 72.8406 88.8781 73.6801 88.3124 74.4149C87.7467 75.1497 87.0412 75.7654 86.2365 76.2265C85.4319 76.6876 84.544 76.9849 83.624 77.1014C82.704 77.218 81.77 77.1514 80.8758 76.9055L76.3715 75.6926C78.173 76.1751 79.709 77.3536 80.6416 78.9687C81.5742 80.5838 81.827 82.5033 81.3444 84.3048C80.8618 86.1063 79.6833 87.6423 78.0682 88.5749C76.4531 89.5075 74.5337 89.7603 72.7322 89.2777L51.3748 83.5509C46.7784 82.3686 42.5083 80.1638 38.883 77.1008L38.8839 77.0988Z" fill="#FBBD80"/>
<path fill-rule="evenodd" clip-rule="evenodd" d="M41.9241 24.132L29.23 71.5408C24.3996 69.5104 19.3721 67.9849 14.2279 66.9886L26.6096 20.7684C31.8706 22.0898 37.0958 23.4231 41.9241 24.132Z" fill="#E2AA73"/>
<path fill-rule="evenodd" clip-rule="evenodd" d="M19.8208 11.0086L36.7209 15.5368C37.5353 15.7594 38.2291 16.2941 38.6518 17.0249C39.0745 17.7558 39.1921 18.6238 38.979 19.4407L23.8809 75.7621C23.661 76.5751 23.1281 77.2679 22.3987 77.6888C21.6693 78.1098 20.8029 78.2247 19.989 78.0083L3.07695 73.4797C2.26308 73.2613 1.56925 72.7286 1.14803 71.9988C0.726815 71.269 0.61269 70.4017 0.830751 69.5878L15.9174 13.2667C16.1399 12.4524 16.6745 11.7586 17.4052 11.3358C18.136 10.9131 19.0039 10.7955 19.8208 11.0086Z" fill="#685E68"/>
<path d="M22.5834 23.3714C22.5834 22.9817 22.6602 22.5958 22.8093 22.2358C22.9585 21.8757 23.177 21.5486 23.4526 21.2731C23.7281 20.9975 24.0553 20.7789 24.4153 20.6298C24.7753 20.4807 25.1612 20.4039 25.5509 20.4039C25.9406 20.4039 26.3265 20.4807 26.6865 20.6298C27.0465 20.7789 27.3736 20.9975 27.6492 21.2731C27.9248 21.5486 28.1433 21.8757 28.2925 22.2358C28.4416 22.5958 28.5184 22.9817 28.5184 23.3714V23.4793C28.5184 24.2664 28.2057 25.0211 27.6492 25.5777C27.0927 26.1342 26.3379 26.4468 25.5509 26.4468C24.7639 26.4468 24.0091 26.1342 23.4526 25.5777C22.8961 25.0211 22.5834 24.2664 22.5834 23.4793V23.3714Z" fill="#EAF6FF"/>
<path fill-rule="evenodd" clip-rule="evenodd" d="M6.18773 71.0116L21.2743 14.6902C21.4956 13.8756 22.0306 13.1819 22.7622 12.7609C23.4938 12.3399 24.3623 12.2259 25.1778 12.444L19.8199 11.0014C19.003 10.7884 18.135 10.906 17.4043 11.3287C16.6736 11.7514 16.1389 12.4452 15.9164 13.2596L0.830649 69.5819C0.612711 70.3958 0.726898 71.2629 1.14811 71.9926C1.56931 72.7224 2.26307 73.255 3.07685 73.4733L8.41002 74.9027C7.60217 74.6768 6.91588 74.1416 6.49989 73.4132C6.08391 72.6848 5.97175 71.8217 6.18773 71.0112V71.0116Z" fill="#5E555E"/>
<path fill-rule="evenodd" clip-rule="evenodd" d="M36.7214 27.8223C50.4871 30.9452 62.6421 31.7859 66.2336 18.3932L69.2834 6.98254C69.3892 6.59363 69.644 6.26207 69.9925 6.05972C70.3411 5.85736 70.7553 5.80051 71.1455 5.90149L76.4663 7.33081C77.6662 7.65299 78.7573 8.29186 79.6254 9.18052C79.6601 7.60968 79.1664 6.07269 78.2233 4.81596C77.2803 3.55923 75.9425 2.65556 74.4245 2.24987L69.1153 0.820547C68.7267 0.717351 68.3131 0.771789 67.9644 0.972008C67.6158 1.17223 67.3603 1.50202 67.2536 1.88965L64.1922 13.3123C60.8888 25.6482 50.307 25.9005 37.9109 23.4259L36.7214 27.8223Z" fill="#E2AA73"/>
</svg>
