<svg width="343" height="362" viewBox="0 0 343 362" fill="none" xmlns="http://www.w3.org/2000/svg">
  <g clip-path="url(#clip0_1366_33315)">
    <g clip-path="url(#clip1_1366_33315)">
      <mask id="mask0_1366_33315" style="mask-type:luminance" maskUnits="userSpaceOnUse" x="-9" y="0" width="362" height="361">
        <path d="M-8.19727 0H352.138V360.379H-8.19727V0Z" fill="#FAF9F6"/>
      </mask>
      <g mask="url(#mask0_1366_33315)">
        <path fill-rule="evenodd" clip-rule="evenodd" d="M-8.19568 360.379H352.14V0H-8.19568V360.379Z" fill="#FAF9F6"/>
      </g>
      <mask id="mask1_1366_33315" style="mask-type:luminance" maskUnits="userSpaceOnUse" x="-9" y="0" width="362" height="361">
        <path d="M-8.19727 0H352.138V360.379H-8.19727V0Z" fill="#E2D7C1"/>
      </mask>
      <g mask="url(#mask1_1366_33315)">
        <path fill-rule="evenodd" clip-rule="evenodd" d="M117.034 -20.0597C117.168 -21.2462 116.316 -22.3172 115.129 -22.4517C113.943 -22.5863 112.872 -21.7336 112.737 -20.5473L106.9 30.8918C106.765 32.0782 107.618 33.1492 108.804 33.2838C109.991 33.4183 111.061 32.5657 111.196 31.3793L117.034 -20.0597Z" fill="#E0E0E0"/>
      </g>
      <mask id="mask2_1366_33315" style="mask-type:luminance" maskUnits="userSpaceOnUse" x="-9" y="0" width="362" height="361">
        <path d="M-8.19727 0H352.138V360.379H-8.19727V0Z" fill="#E2D7C1"/>
      </mask>
      <g mask="url(#mask2_1366_33315)">
        <path fill-rule="evenodd" clip-rule="evenodd" d="M126.542 35.667C126.663 34.4789 125.798 33.4177 124.609 33.2968C123.422 33.176 122.361 34.041 122.24 35.2288L118.611 70.852C118.463 72.2995 117.212 73.3803 115.758 73.3151L67.8449 71.1689C66.6519 71.1155 65.6415 72.0394 65.5884 73.2324C65.5353 74.425 66.4588 75.4349 67.6514 75.4884L119.647 77.8184C121.1 77.8835 122.352 76.8027 122.499 75.3552L126.542 35.667Z" fill="#E0E0E0"/>
      </g>
      <mask id="mask3_1366_33315" style="mask-type:luminance" maskUnits="userSpaceOnUse" x="-9" y="0" width="362" height="361">
        <path d="M-8.19727 0H352.138V360.379H-8.19727V0Z" fill="#E2D7C1"/>
      </mask>
      <g mask="url(#mask3_1366_33315)">
        <path fill-rule="evenodd" clip-rule="evenodd" d="M95.5851 245.262C86.0675 245.262 78.3244 237.519 78.3244 228.002C78.3244 218.485 86.0675 210.742 95.5851 210.742C105.102 210.742 112.845 218.485 112.845 228.002C112.845 237.519 105.102 245.262 95.5851 245.262ZM171.088 83.8883C172.593 84.3055 173.446 85.892 172.966 87.3773L154.774 143.596C154.318 145.004 152.827 145.797 151.405 145.388L141.636 142.579C140.159 142.155 139.318 140.6 139.772 139.132L157.181 82.7958C157.619 81.3777 159.105 80.5651 160.536 80.9617L171.088 83.8883ZM160.841 148.1C159.35 147.672 158.511 146.094 158.988 144.618L177.208 88.3132C177.661 86.9144 179.136 86.1209 180.553 86.5139L187.762 88.5136C189.247 88.9255 190.102 90.4794 189.654 91.9542L172.464 148.629C172.029 150.064 170.521 150.884 169.08 150.469L160.841 148.1ZM178.511 153.181C177.04 152.758 176.199 151.213 176.644 149.747L193.861 92.9854C194.294 91.5597 195.785 90.7395 197.22 91.1378L212.15 95.2795L250.382 105.3C251.861 105.688 252.738 107.209 252.332 108.683L236.29 166.906C235.884 168.378 234.354 169.236 232.886 168.814L178.511 153.181ZM332.234 235.76C333.376 236.11 334.585 235.468 334.935 234.326L364.489 137.927C364.92 136.52 366.385 135.704 367.808 136.077L387.782 141.312C388.937 141.615 390.119 140.924 390.422 139.768C390.724 138.613 390.033 137.431 388.878 137.128L332.649 122.391C331.203 122.012 330.327 120.546 330.677 119.094L339.855 81.0056L363.307 -4.87222C363.622 -6.02435 362.943 -7.21336 361.791 -7.52769C360.639 -7.8419 359.45 -7.1631 359.136 -6.01139L335.667 79.9295L326.521 117.891C326.161 119.385 324.644 120.293 323.157 119.903L309.508 116.325C308.021 115.936 307.144 114.401 307.564 112.923L345.171 -19.75C345.497 -20.8991 344.829 -22.0946 343.68 -22.4202C342.531 -22.7458 341.336 -22.0784 341.01 -20.9295L303.349 111.931C302.942 113.369 301.459 114.216 300.013 113.837L261.09 103.636C259.611 103.248 258.734 101.726 259.14 100.252L269.631 62.1762C269.949 61.0248 269.272 59.8342 268.121 59.517C266.97 59.1997 265.779 59.8759 265.462 61.0273L254.938 99.2216C254.539 100.67 253.05 101.528 251.597 101.147L213.277 91.1041L198.602 87.0335C197.117 86.6215 196.262 85.0677 196.709 83.5928L226.296 -13.9516C226.643 -15.0943 225.997 -16.3017 224.855 -16.6486C223.712 -16.9956 222.504 -16.3501 222.157 -15.207L192.502 82.5616C192.07 83.9874 190.579 84.8075 189.143 84.4092L182.109 82.4578C180.604 82.0405 179.751 80.4541 180.231 78.9688L210.91 -15.8423C211.278 -16.9781 210.655 -18.1969 209.519 -18.5645C208.383 -18.9321 207.165 -18.3092 206.797 -17.1733L175.989 78.0333C175.536 79.4321 174.061 80.2256 172.645 79.8326L157.645 75.6716C156.214 75.2748 154.728 76.0874 154.29 77.5056L135.1 139.606C134.781 140.637 133.887 141.386 132.816 141.519L61.646 150.352C60.461 150.499 59.6194 151.578 59.7663 152.763C59.9132 153.949 60.9933 154.791 62.1787 154.644L128.963 146.355C130.94 146.11 132.511 147.985 131.923 149.888L122.754 179.559C122.401 180.7 123.041 181.911 124.182 182.263C125.323 182.616 126.533 181.976 126.886 180.835L136.875 148.508C137.316 147.081 138.819 146.268 140.255 146.681L167.749 154.587C169.221 155.01 170.061 156.555 169.617 158.02L160.301 188.732C159.954 189.874 160.6 191.082 161.743 191.428C162.885 191.775 164.093 191.13 164.44 189.987L173.796 159.139C174.231 157.704 175.738 156.884 177.18 157.298L235.893 174.179C237.361 174.601 238.891 173.743 239.297 172.271L256.533 109.713C256.932 108.265 258.421 107.407 259.874 107.788L322.017 124.075C323.513 124.467 324.389 126.017 323.955 127.501L295.418 224.918L280.344 275.638C279.92 277.067 278.432 277.895 276.994 277.504L119.038 234.545C117.567 234.145 116.723 232.622 116.943 231.113C117.094 230.085 117.17 229.046 117.17 228.002C117.17 220.091 112.793 212.858 105.998 209.1C104.806 208.441 104.113 207.09 104.449 205.77L105.234 202.692C105.617 201.188 107.171 200.302 108.661 200.736L241.081 239.34C242.228 239.675 243.429 239.016 243.763 237.869C244.097 236.723 243.438 235.522 242.292 235.188L109.55 196.49C108.13 196.076 107.294 194.611 107.659 193.177L111.241 179.131C111.536 177.974 110.837 176.796 109.68 176.501C108.523 176.206 107.345 176.905 107.05 178.063L100.359 204.305C99.9998 205.715 98.6012 206.58 97.1497 206.474C96.6287 206.436 96.1067 206.417 95.5851 206.417C87.4113 206.417 80.0682 210.999 76.4072 218.104C75.7812 219.319 74.444 220.051 73.1119 219.746L-12.7599 200.067C-14.158 199.747 -15.5669 200.557 -15.993 201.927L-29.6911 245.961C-30.0458 247.101 -29.409 248.313 -28.2687 248.667C-27.1285 249.022 -25.9166 248.385 -25.5619 247.245L-13.0537 207.037C-12.6277 205.668 -11.2187 204.857 -9.82064 205.178L71.7761 223.877C73.1915 224.201 74.0894 225.573 74.0225 227.024C74.0074 227.35 73.9999 227.676 73.9999 228.002C73.9999 235.692 78.0177 242.639 84.4711 246.502C85.6527 247.21 86.2971 248.606 85.8917 249.923L47.43 374.808C47.0785 375.95 47.719 377.16 48.8606 377.511C50.0019 377.862 51.2119 377.222 51.5633 376.081L89.9404 251.469C90.3648 250.09 91.783 249.296 93.2161 249.455C94.0028 249.542 94.7937 249.586 95.5851 249.586C102.905 249.586 109.705 245.822 113.658 239.783C114.367 238.701 115.667 238.11 116.916 238.45L275.639 281.617C277.125 282.021 277.988 283.57 277.549 285.047L264.955 327.421C264.615 328.566 265.266 329.769 266.411 330.11C267.556 330.45 268.76 329.798 269.1 328.653L281.759 286.059C282.184 284.63 283.671 283.802 285.11 284.193L321.858 294.188C323.337 294.59 324.2 296.126 323.774 297.598L302.249 372.033C302.083 372.607 302.414 373.207 302.988 373.373L304.026 373.673C305.174 374.004 306.373 373.343 306.705 372.195L327.973 298.649C328.389 297.21 329.883 296.371 331.329 296.764L382.48 310.675C383.632 310.988 384.82 310.308 385.134 309.156C385.447 308.004 384.767 306.816 383.615 306.502L332.615 292.632C331.136 292.229 330.273 290.694 330.699 289.222L345.162 239.206C345.494 238.059 344.833 236.86 343.685 236.528C342.538 236.196 341.339 236.858 341.007 238.005L326.5 288.171C326.084 289.61 324.59 290.449 323.144 290.056L286.465 280.081C284.978 279.676 284.116 278.128 284.555 276.651L299.565 226.142L328.181 128.446C328.599 127.021 330.074 126.187 331.51 126.563L358.307 133.586C359.816 133.982 360.692 135.554 360.235 137.045L330.8 233.058C330.45 234.2 331.092 235.41 332.234 235.76Z" fill="#E0E0E0"/>
      </g>
      <path fill-rule="evenodd" clip-rule="evenodd" d="M58.8052 181.451C59.0488 180.283 58.2988 179.137 57.1299 178.894L1.92366 167.379C0.365194 167.054 -0.590453 165.475 -0.155822 163.943L11.2332 123.812C11.5591 122.663 10.8924 121.468 9.74397 121.142C8.5952 120.815 7.39948 121.482 7.07343 122.631L-5.58379 167.229C-6.01845 168.761 -5.06279 170.34 -3.50431 170.665L56.2469 183.127C57.4161 183.371 58.5616 182.621 58.8052 181.451Z" fill="#E0E0E0"/>
        <mask id="mask4_1366_33315" style="mask-type:luminance" maskUnits="userSpaceOnUse" x="-9" y="0" width="362" height="361">
          <path d="M-8.19727 0H352.138V360.379H-8.19727V0Z" fill="#E2D7C1"/>
        </mask>
        <g mask="url(#mask4_1366_33315)">
          <path fill-rule="evenodd" clip-rule="evenodd" d="M21.6171 58.5007C21.9855 57.3649 21.3635 56.1455 20.2278 55.7769C19.0918 55.4083 17.872 56.0304 17.5036 57.1665L-2.22999 118.01C-2.59837 119.146 -1.97637 120.365 -0.840622 120.733C0.29538 121.102 1.51512 120.48 1.88358 119.344L21.6171 58.5007Z" fill="#E0E0E0"/>
        </g>
        <mask id="mask5_1366_33315" style="mask-type:luminance" maskUnits="userSpaceOnUse" x="-9" y="0" width="362" height="361">
          <path d="M-8.19727 0H352.138V360.379H-8.19727V0Z" fill="#E2D7C1"/>
        </mask>
        <g mask="url(#mask5_1366_33315)">
          <path fill-rule="evenodd" clip-rule="evenodd" d="M149.838 321.448C148.686 321.132 147.497 321.811 147.182 322.963C146.867 324.115 147.546 325.304 148.698 325.618L211.546 342.787C211.68 342.824 211.811 342.87 211.938 342.927L297.203 380.854C297.748 381.097 298.387 380.852 298.63 380.307L299.07 379.318C299.555 378.227 299.064 376.95 297.974 376.465L213.552 338.912C213.425 338.856 213.295 338.809 213.161 338.772L149.838 321.448Z" fill="#E0E0E0"/>
        </g>
        <path fill-rule="evenodd" clip-rule="evenodd" d="M166.589 86.0091L163.054 85.0281C161.43 84.5777 159.742 85.5002 159.244 87.1104L143.961 136.569C143.445 138.237 144.4 140.002 146.076 140.483L148.941 141.307C150.556 141.772 152.249 140.871 152.766 139.272L168.72 89.9696C169.266 88.2838 168.296 86.4826 166.589 86.0091Z" fill="#E0E0E0"/>
        <path fill-rule="evenodd" clip-rule="evenodd" d="M186.614 80.3391C188.245 80.7917 189.938 79.8605 190.428 78.2417L197.693 54.2923C198.182 52.6789 197.115 51.0099 195.445 50.7779L195.162 50.7386C193.843 50.5554 192.583 51.3451 192.173 52.6117L184.483 76.3778C183.937 78.0644 184.907 79.8655 186.614 80.3391Z" fill="#E0E0E0"/>
        <path fill-rule="evenodd" clip-rule="evenodd" d="M183.027 90.5652C181.419 90.119 179.744 91.02 179.231 92.6078L163.228 142.062C162.686 143.738 163.638 145.529 165.331 146.015L166.555 146.368C168.192 146.838 169.903 145.907 170.398 144.277L185.479 94.5553C185.987 92.881 185.017 91.1166 183.331 90.6488L183.027 90.5652Z" fill="#E0E0E0"/>
        <path fill-rule="evenodd" clip-rule="evenodd" d="M262.786 99.2544C262.577 100.012 263.028 100.794 263.787 100.993L273.773 103.61C274.511 103.804 275.27 103.371 275.485 102.638C276.546 99.0125 277.595 95.4278 278.631 91.8874C279.062 90.4134 278.2 88.8723 276.718 88.4689L269.162 86.4119C267.702 86.0147 266.197 86.8728 265.795 88.3307L262.786 99.2544Z" fill="#E0E0E0"/>
        <path fill-rule="evenodd" clip-rule="evenodd" d="M284.042 73.3831C284.261 72.6313 283.825 71.8507 283.072 71.6367L272.68 68.683C271.927 68.4689 271.144 68.9093 270.935 69.6647L267.825 80.9535C267.421 82.4177 268.284 83.9311 269.749 84.3301L277.422 86.4191C278.865 86.8119 280.357 85.9773 280.777 84.5422C281.883 80.7606 282.973 77.0373 284.042 73.3831Z" fill="#E0E0E0"/>
        <path fill-rule="evenodd" clip-rule="evenodd" d="M216.733 56.9271C217.212 55.3167 216.145 53.6574 214.481 53.426L211.787 53.0515C210.449 52.8655 209.175 53.6805 208.783 54.9729L200.781 81.3561C200.334 82.8309 201.189 84.3847 202.674 84.7967L205.399 85.5527C206.84 85.9524 208.335 85.1249 208.762 83.6917L216.733 56.9271Z" fill="#E0E0E0"/>
        <path fill-rule="evenodd" clip-rule="evenodd" d="M221.334 86.93C220.891 88.4166 221.768 89.9744 223.268 90.3676L250.599 97.5307C251.346 97.7268 252.111 97.2857 252.316 96.5411L255.358 85.5011C255.762 84.0369 254.899 82.5234 253.433 82.1245L227.651 75.1062C226.213 74.7148 224.726 75.5425 224.3 76.9706L221.334 86.93Z" fill="#E0E0E0"/>
        <path fill-rule="evenodd" clip-rule="evenodd" d="M260.544 66.6826C260.75 65.9359 260.315 65.1632 259.571 64.952L231.693 57.0287C230.951 56.8176 230.177 57.2428 229.957 57.9823L226.486 69.6375C226.046 71.1143 226.908 72.6637 228.395 73.0684L254.025 80.0448C255.484 80.442 256.99 79.5839 257.391 78.1261L260.544 66.6826Z" fill="#E0E0E0"/>
        <path fill-rule="evenodd" clip-rule="evenodd" d="M138.93 152.853L132.544 173.521C132.078 175.031 132.98 176.622 134.516 176.997L156.163 182.278C157.578 182.624 159.016 181.803 159.439 180.409L165.451 160.589C165.956 158.926 165.001 157.171 163.331 156.691L142.768 150.778C141.137 150.31 139.431 151.232 138.93 152.853Z" fill="#E0E0E0"/>
        <path fill-rule="evenodd" clip-rule="evenodd" d="M289.822 230.235L254.92 221.084C254.609 221.003 254.29 221.183 254.2 221.491L241.764 263.941C241.671 264.259 241.857 264.593 242.177 264.679L276.82 274.101C277.131 274.186 277.452 274.006 277.544 273.698L290.24 230.977C290.336 230.656 290.146 230.32 289.822 230.235Z" fill="#B7EF96"/>
        <path fill-rule="evenodd" clip-rule="evenodd" d="M241.216 217.487L189.531 203.935C188.069 203.552 186.573 204.423 186.184 205.884L184.509 212.173C184.126 213.613 184.962 215.096 186.393 215.513L237.452 230.398C237.766 230.49 238.095 230.31 238.187 229.996L241.635 218.226C241.729 217.906 241.539 217.571 241.216 217.487Z" fill="#E0E0E0"/>
        <path fill-rule="evenodd" clip-rule="evenodd" d="M169.544 295.428C183.287 299.231 197.671 303.212 212.696 307.373C214.141 307.773 215.64 306.94 216.062 305.5L225.242 274.168C225.674 272.694 224.812 271.152 223.329 270.749L175.249 257.673C173.781 257.274 172.269 258.145 171.878 259.615L164.629 286.842C163.637 290.569 165.827 294.399 169.544 295.428Z" fill="#E0E0E0"/>
        <path fill-rule="evenodd" clip-rule="evenodd" d="M288.397 277.245L322.961 286.645C323.273 286.73 323.596 286.548 323.685 286.237L336.184 243.014C336.277 242.694 336.088 242.36 335.765 242.276L301.43 233.273C301.121 233.193 300.803 233.371 300.711 233.678L287.984 276.504C287.889 276.823 288.076 277.158 288.397 277.245Z" fill="#E0E0E0"/>
        <path fill-rule="evenodd" clip-rule="evenodd" d="M127.174 154.277C127.842 152.116 126.059 149.987 123.814 150.265L69.5822 156.995C68.1003 157.18 66.9572 158.389 66.857 159.879C66.8341 160.227 67.0645 160.541 67.4033 160.624L118.651 173.128C120.061 173.472 121.495 172.659 121.923 171.273L127.174 154.277Z" fill="#E0E0E0"/>
        <path fill-rule="evenodd" clip-rule="evenodd" d="M82.0828 251.281C82.4535 250.077 81.9467 248.788 80.9286 248.047C74.6103 243.446 70.7591 236.082 70.7591 228.006C70.7591 227.411 70.3599 226.883 69.78 226.75L60.2275 224.561C58.6831 224.208 57.1607 225.232 56.9063 226.796L51.4634 260.251C51.2384 261.634 52.091 262.964 53.4414 263.337C59.937 265.13 66.742 267.008 73.8474 268.971C75.2781 269.366 76.7638 268.552 77.2007 267.134L82.0828 251.281Z" fill="#E0E0E0"/>
        <path fill-rule="evenodd" clip-rule="evenodd" d="M152.159 283.255L159.365 256.188C159.753 254.729 158.89 253.23 157.433 252.834L118.229 242.171C117.086 241.86 115.884 242.328 115.154 243.261C110.503 249.204 103.296 252.833 95.5858 252.833C95.4625 252.833 95.3392 252.832 95.216 252.83C93.9024 252.81 92.6794 253.599 92.2927 254.855L87.6716 269.861C87.2163 271.339 88.0713 272.901 89.5622 273.313C106.076 277.876 124.049 282.846 143.482 288.222C147.251 289.264 151.153 287.034 152.159 283.255Z" fill="#E0E0E0"/>
        <path fill-rule="evenodd" clip-rule="evenodd" d="M15.5038 130.375C14.0666 130.017 12.6043 130.864 12.2 132.289L3.91648 161.478C3.48187 163.01 4.43748 164.589 5.99591 164.914L23.0588 168.473C24.5936 168.793 26.0842 167.765 26.3294 166.216L30.9843 136.818C31.2068 135.412 30.3185 134.07 28.9381 133.726L15.5038 130.375Z" fill="#E0E0E0"/>
        <path fill-rule="evenodd" clip-rule="evenodd" d="M49.4485 173.974C50.9787 174.293 52.466 173.272 52.7171 171.729L53.2985 168.157L54.993 142.865C55.0939 141.359 54.1021 139.998 52.6383 139.633L36.3857 135.58C34.8236 135.191 33.2632 136.223 33.0114 137.813L28.4029 166.918C28.174 168.363 29.1201 169.734 30.5529 170.033L49.4485 173.974Z" fill="#E0E0E0"/>
        <path fill-rule="evenodd" clip-rule="evenodd" d="M50.0988 187.839C50.3346 186.39 49.3879 185.012 47.9507 184.713L-0.607673 174.584C-2.31183 174.228 -3.91199 175.529 -3.91199 177.27V196.584C-3.91199 197.864 -3.0279 198.973 -1.78088 199.259L43.5915 209.656C45.136 210.01 46.6583 208.986 46.9128 207.422L50.0988 187.839Z" fill="#E0E0E0"/>
        <path fill-rule="evenodd" clip-rule="evenodd" d="M-0.504174 126.387C-2.23561 125.955 -3.91199 127.265 -3.91199 129.049V129.737C-3.91199 132.922 0.602264 133.55 1.47177 130.486L1.65413 129.844C2.07732 128.353 1.18222 126.807 -0.321815 126.432L-0.504174 126.387Z" fill="#E0E0E0"/>
        <path fill-rule="evenodd" clip-rule="evenodd" d="M320.294 128.471C320.517 127.708 320.067 126.912 319.298 126.711L285.938 117.967C285.202 117.773 284.447 118.197 284.234 118.927C282.409 125.161 280.557 131.488 278.686 137.878C278.248 139.373 279.142 140.933 280.653 141.311L311.523 149.04C312.952 149.398 314.408 148.563 314.822 147.15L320.294 128.471Z" fill="#E0E0E0"/>
        <path fill-rule="evenodd" clip-rule="evenodd" d="M312.67 154.506C313.108 153.01 312.214 151.451 310.703 151.073L279.834 143.344C278.405 142.986 276.948 143.821 276.534 145.235C273.533 155.484 270.494 165.864 267.448 176.265C267.02 177.725 267.863 179.255 269.327 179.674L299.895 188.416C301.346 188.831 302.859 187.997 303.283 186.549L312.67 154.506Z" fill="#E0E0E0"/>
        <path fill-rule="evenodd" clip-rule="evenodd" d="M258.182 207.898C258.088 208.219 258.278 208.552 258.601 208.637L293.53 217.795C293.84 217.876 294.159 217.696 294.249 217.388L301.132 193.892C301.56 192.431 300.717 190.901 299.253 190.482L268.684 181.74C267.234 181.325 265.721 182.159 265.297 183.607C262.918 191.729 260.541 199.844 258.182 207.898Z" fill="#E0E0E0"/>
        <path fill-rule="evenodd" clip-rule="evenodd" d="M71.5065 216.052C72.7242 216.331 73.9635 215.742 74.6327 214.688C79.1135 207.625 86.9463 203.175 95.5867 203.175C96.5725 203.175 97.4647 202.539 97.7083 201.584L101.875 185.241C102.252 183.762 101.349 182.259 99.866 181.897L68.4525 174.233C66.8983 173.853 65.3505 174.879 65.0937 176.458L59.5275 210.672C59.2951 212.1 60.2123 213.464 61.6231 213.787L71.5065 216.052Z" fill="#E0E0E0"/>
        <path fill-rule="evenodd" clip-rule="evenodd" d="M347.82 135.278C347.82 134.637 347.387 134.077 346.767 133.914L332.487 130.172C331.749 129.978 330.992 130.407 330.777 131.139L325.377 149.572C324.939 151.067 325.833 152.627 327.344 153.005L344.409 157.278C346.141 157.712 347.82 156.402 347.82 154.616V135.278Z" fill="#E0E0E0"/>
        <path fill-rule="evenodd" clip-rule="evenodd" d="M347.818 166.284V162.506C347.818 161.247 346.962 160.15 345.741 159.844L326.523 155.033C325.094 154.675 323.638 155.51 323.224 156.924L313.685 189.487C313.258 190.948 314.101 192.478 315.564 192.897L335.188 198.509C336.626 198.92 338.128 198.104 338.566 196.675L347.756 166.697C347.797 166.563 347.818 166.424 347.818 166.284Z" fill="#E0E0E0"/>
        <path fill-rule="evenodd" clip-rule="evenodd" d="M304.719 220.093C304.625 220.414 304.815 220.748 305.138 220.833L328.672 227.003C328.98 227.083 329.296 226.908 329.389 226.603L336.323 203.987C336.773 202.519 335.93 200.967 334.454 200.545L314.923 194.959C313.472 194.544 311.959 195.378 311.535 196.826L304.719 220.093Z" fill="#E0E0E0"/>
        <path fill-rule="evenodd" clip-rule="evenodd" d="M238.389 275.448L227.976 310.981C227.884 311.298 228.068 311.63 228.387 311.719L262.8 321.25C263.111 321.336 263.434 321.158 263.526 320.848L274.123 285.193C274.218 284.873 274.031 284.539 273.711 284.452L239.113 275.042C238.802 274.958 238.479 275.138 238.389 275.448Z" fill="#E0E0E0"/>
        <path fill-rule="evenodd" clip-rule="evenodd" d="M157.672 312.981C156.677 316.717 158.885 320.556 162.614 321.574L205.142 333.192C206.584 333.586 208.077 332.752 208.498 331.317L210.869 323.227C211.3 321.758 210.444 320.22 208.968 319.811C195.03 315.953 180.728 311.994 166.344 308.012C162.575 306.969 158.678 309.202 157.672 312.981Z" fill="#E0E0E0"/>
        <path fill-rule="evenodd" clip-rule="evenodd" d="M248.695 109.683C248.903 108.925 248.453 108.143 247.693 107.944L220.004 100.687C218.572 100.311 217.101 101.139 216.679 102.558L211.196 120.969C210.75 122.467 211.643 124.035 213.159 124.414L240.005 131.135C241.45 131.497 242.92 130.639 243.316 129.202L248.695 109.683Z" fill="#E0E0E0"/>
        <path fill-rule="evenodd" clip-rule="evenodd" d="M201.5 153.532C201.064 154.994 201.905 156.531 203.371 156.953L231.931 165.163C232.685 165.38 233.472 164.94 233.68 164.183L241.285 136.582C241.694 135.097 240.801 133.566 239.306 133.192L212.308 126.433C210.883 126.076 209.431 126.904 209.011 128.311L201.5 153.532Z" fill="#E0E0E0"/>
        <path fill-rule="evenodd" clip-rule="evenodd" d="M229.236 260.553L234.815 241.511C234.906 241.196 234.726 240.867 234.411 240.775L183.735 226.001C182.256 225.57 180.711 226.441 180.315 227.93L176.072 243.868C175.684 245.327 176.547 246.825 178.003 247.222L228.511 260.958C228.823 261.043 229.145 260.863 229.236 260.553Z" fill="#E0E0E0"/>
        <path fill-rule="evenodd" clip-rule="evenodd" d="M200.782 95.494C198.583 94.8835 196.298 96.1398 195.636 98.3236L181.174 146.005C180.473 148.315 181.799 150.753 184.12 151.42C186.402 152.077 188.786 150.772 189.464 148.496L203.686 100.743C204.357 98.4887 203.048 96.1225 200.782 95.494Z" fill="#E0E0E0"/>
        <path fill-rule="evenodd" clip-rule="evenodd" d="M175.288 186.947C176.709 187.294 178.151 186.466 178.569 185.065L184.36 165.621C184.795 164.159 183.954 162.622 182.488 162.2L179.358 161.3C177.916 160.886 176.409 161.705 175.974 163.141L170.045 182.687C169.587 184.194 170.49 185.776 172.02 186.15L175.288 186.947Z" fill="#E0E0E0"/>
        <path fill-rule="evenodd" clip-rule="evenodd" d="M111.58 190.944C111.215 192.378 112.051 193.843 113.471 194.257L168.665 210.347C170.144 210.778 171.688 209.908 172.085 208.419L173.588 202.771C173.984 201.285 173.081 199.764 171.587 199.399L115.704 185.763C114.243 185.406 112.766 186.293 112.395 187.751L111.58 190.944Z" fill="#E0E0E0"/>
        <path fill-rule="evenodd" clip-rule="evenodd" d="M95.5872 242.021C103.316 242.021 109.604 235.734 109.604 228.005C109.604 220.276 103.316 213.988 95.5872 213.988C87.8578 213.988 81.5699 220.276 81.5699 228.005C81.5699 235.734 87.8578 242.021 95.5872 242.021Z" fill="#B7EF96"/>
        <path fill-rule="evenodd" clip-rule="evenodd" d="M271.654 115.721C271.878 114.958 271.43 114.172 270.661 113.971L260.88 111.408C260.133 111.212 259.368 111.653 259.163 112.397L253.841 131.712C253.432 133.198 254.326 134.729 255.82 135.103L262.727 136.832C264.156 137.19 265.613 136.355 266.027 134.941C267.924 128.461 269.803 122.045 271.654 115.721Z" fill="#E0E0E0"/>
        <path fill-rule="evenodd" clip-rule="evenodd" d="M241.197 177.593C240.989 178.35 240.202 178.791 239.448 178.574L200.233 167.299C198.786 166.883 197.275 167.71 196.845 169.153L191.221 188.035C190.779 189.521 191.655 191.079 193.155 191.472L244.897 205.038C245.207 205.12 245.525 204.941 245.616 204.633C251.668 183.97 257.848 162.871 263.876 142.283C264.314 140.788 263.42 139.229 261.909 138.85L255.12 137.151C253.674 136.789 252.204 137.647 251.808 139.084L241.197 177.593Z" fill="#E0E0E0"/>
        <path fill-rule="evenodd" clip-rule="evenodd" d="M160.191 242.38C161.659 242.779 163.171 241.908 163.563 240.438L167.892 224.177C168.275 222.737 167.439 221.254 166.008 220.837L109.571 204.384C108.851 204.174 108.1 204.603 107.915 205.33C107.766 205.912 108.031 206.519 108.543 206.834C115.8 211.291 120.418 219.292 120.418 228.008C120.418 228.367 120.41 228.726 120.395 229.084C120.335 230.467 121.174 231.77 122.511 232.133L160.191 242.38Z" fill="#E0E0E0"/>
        <path fill-rule="evenodd" clip-rule="evenodd" d="M305.616 346.584C283.573 340.477 256.319 332.929 226.762 324.743C225.317 324.343 223.818 325.177 223.396 326.616L220.667 335.929C220.28 337.247 220.929 338.649 222.185 339.207L259.95 356.007C260.026 356.04 260.108 356.058 260.191 356.058H303.051C303.315 356.058 303.547 355.883 303.62 355.63L306.024 347.319C306.115 347.002 305.934 346.672 305.616 346.584Z" fill="#E0E0E0"/>
        <path fill-rule="evenodd" clip-rule="evenodd" d="M319.942 297.028L285.293 287.605C284.982 287.521 284.661 287.699 284.569 288.008L273.957 323.717C273.863 324.035 274.047 324.369 274.366 324.456L309.233 334.117C309.546 334.205 309.871 334.023 309.961 333.711L320.356 297.765C320.448 297.447 320.262 297.115 319.942 297.028Z" fill="#E0E0E0"/>
        <path fill-rule="evenodd" clip-rule="evenodd" d="M347.381 304.489L331.517 300.175C331.205 300.091 330.882 300.272 330.792 300.583L320.382 336.584C320.291 336.901 320.475 337.232 320.793 337.32L347.068 344.602C347.445 344.707 347.819 344.423 347.819 344.031V305.062C347.819 304.794 347.639 304.56 347.381 304.489Z" fill="#E0E0E0"/>
        <path fill-rule="evenodd" clip-rule="evenodd" d="M18.6058 217.462C18.7326 216.093 17.8266 214.841 16.4865 214.534L-0.555039 210.629C-2.2734 210.235 -3.91199 211.54 -3.91199 213.303V245.44C-3.91199 246.675 -3.08676 247.758 -1.89551 248.085C2.49235 249.292 7.18245 250.582 12.1731 251.956C13.82 252.409 15.4768 251.264 15.6342 249.563L18.6058 217.462Z" fill="#E0E0E0"/>
        <path fill-rule="evenodd" clip-rule="evenodd" d="M35.5413 258.392C37.1149 258.826 38.7174 257.799 38.9795 256.188L44.2912 223.538C44.5236 222.109 43.6065 220.746 42.1957 220.422L24.011 216.255C22.3929 215.884 20.8187 217.024 20.6657 218.677L17.6623 251.118C17.5397 252.442 18.3836 253.663 19.6655 254.016C24.6866 255.4 29.9771 256.858 35.5413 258.392Z" fill="#E0E0E0"/>
        <path fill-rule="evenodd" clip-rule="evenodd" d="M51.1511 276.165C49.6834 275.76 48.1662 276.627 47.7706 278.097L27.7238 352.6C27.2547 354.343 28.5681 356.057 30.3735 356.057H47.787C48.9914 356.057 50.055 355.271 50.4095 354.12L71.7611 284.789C72.2164 283.311 71.3603 281.748 69.8693 281.336L51.1511 276.165Z" fill="#E0E0E0"/>
        <path fill-rule="evenodd" clip-rule="evenodd" d="M151.268 337.02L148.556 347.21C147.368 351.674 150.732 356.052 155.352 356.052H199.189C200.407 356.052 201.48 355.249 201.822 354.08L203.91 346.96C204.342 345.487 203.481 343.946 202 343.541L159.918 332.045C156.154 331.017 152.272 333.25 151.268 337.02Z" fill="#E0E0E0"/>
        <path fill-rule="evenodd" clip-rule="evenodd" d="M85.5914 285.679C84.1607 285.283 82.6748 286.097 82.2379 287.516L62.2232 352.504C61.6797 354.269 62.9992 356.056 64.8457 356.056H96.6365C97.9649 356.056 99.1024 355.105 99.3371 353.797C103.049 333.124 107.423 308.723 109.871 294.966C110.119 293.572 109.264 292.225 107.9 291.847C100.364 289.763 92.9123 287.703 85.5914 285.679Z" fill="#E0E0E0"/>
        <path fill-rule="evenodd" clip-rule="evenodd" d="M140.278 300.807C131.903 298.49 123.561 296.181 115.302 293.897C113.743 293.466 112.151 294.47 111.868 296.062C111.744 296.762 111.615 297.486 111.481 298.235C110.006 306.514 108.031 317.551 106.052 328.589C104.528 337.092 103.003 345.59 101.704 352.83C101.402 354.512 102.696 356.058 104.405 356.058H127.372C130.559 356.058 133.347 353.914 134.168 350.834L145.2 309.394C146.192 305.667 143.996 301.835 140.278 300.807Z" fill="#E0E0E0"/>
        <path fill-rule="evenodd" clip-rule="evenodd" d="M230.913 354.919L219.787 349.97C218.27 349.295 216.506 350.112 216.039 351.706L215.795 352.538C215.28 354.295 216.598 356.054 218.428 356.054H230.672C231.312 356.054 231.498 355.179 230.913 354.919Z" fill="#E0E0E0"/>
        <path fill-rule="evenodd" clip-rule="evenodd" d="M347.374 245.322C347.062 245.241 346.743 245.422 346.654 245.731L334.123 289.061C334.032 289.379 334.218 289.711 334.538 289.797L347.068 293.205C347.445 293.307 347.816 293.023 347.816 292.633V245.895C347.816 245.626 347.635 245.391 347.374 245.322Z" fill="#E0E0E0"/>
        <path fill-rule="evenodd" clip-rule="evenodd" d="M335.61 354.889L317.178 349.781C316.864 349.695 316.54 349.876 316.45 350.189L314.973 355.296C314.863 355.675 315.147 356.053 315.542 356.053H335.451C336.142 356.053 336.275 355.074 335.61 354.889Z" fill="#E0E0E0"/>
        <path fill-rule="evenodd" clip-rule="evenodd" d="M24.7209 51.1074C26.4106 51.4267 27.9743 50.1308 27.9743 48.4111V7.06626C27.9743 5.5508 26.7458 4.32227 25.2303 4.32227H-1.16799C-2.68346 4.32227 -3.91199 5.5508 -3.91199 7.06627V42.2683C-3.91199 43.1917 -3.44751 44.0532 -2.67603 44.5607L-0.212812 46.1811C0.0900993 46.3804 0.429498 46.5176 0.78577 46.5849L24.7209 51.1074Z" fill="#E0E0E0"/>
        <path fill-rule="evenodd" clip-rule="evenodd" d="M57.2368 57.2511C59.0726 57.5978 60.7988 56.2622 60.9242 54.3983L64.0574 7.6464C64.1777 5.84739 62.7514 4.32227 60.9488 4.32227H32.8818C31.3663 4.32227 30.1378 5.5508 30.1378 7.06627V49.8567C30.1378 51.1757 31.0763 52.3081 32.3724 52.553L57.2368 57.2511Z" fill="#E0E0E0"/>
        <path fill-rule="evenodd" clip-rule="evenodd" d="M-0.439852 261.929C-2.18693 261.448 -3.91199 262.762 -3.91199 264.575V353.312C-3.91199 354.828 -2.68346 356.056 -1.16799 356.056H11.257C12.4979 356.056 13.5843 355.224 13.9067 354.025L35.2764 274.608C35.6684 273.152 34.8107 271.652 33.3565 271.25C21.118 267.872 9.75209 264.737 -0.439852 261.929Z" fill="#E0E0E0"/>
        <path fill-rule="evenodd" clip-rule="evenodd" d="M323.614 68.207C323.401 68.9559 323.836 69.735 324.585 69.9477L332.91 72.3146C333.665 72.5294 334.45 72.0861 334.656 71.3301L342.736 41.7407C343.118 40.3439 342.348 38.8911 340.978 38.4219L335.586 36.575C334.097 36.0651 332.486 36.9088 332.057 38.4226L323.614 68.207Z" fill="#E0E0E0"/>
        <path fill-rule="evenodd" clip-rule="evenodd" d="M347.768 23.3092C347.801 23.1881 347.818 23.0634 347.818 22.938V5.73279C347.818 4.95365 347.186 4.32227 346.407 4.32227H342.786C342.155 4.32227 341.601 4.74103 341.429 5.3479L334.145 31.0466C333.747 32.4494 334.516 33.9183 335.895 34.3908L341.219 36.2141C342.717 36.7273 344.338 35.8689 344.755 34.3411L347.768 23.3092Z" fill="#E0E0E0"/>
        <path fill-rule="evenodd" clip-rule="evenodd" d="M346.658 207.164L339.872 229.303C339.773 229.625 339.962 229.965 340.288 230.051L347.075 231.83C347.45 231.929 347.818 231.645 347.818 231.257V207.338C347.818 206.656 346.858 206.513 346.658 207.164Z" fill="#E0E0E0"/>
        <path fill-rule="evenodd" clip-rule="evenodd" d="M101.141 24.5748C102.876 24.8156 104.468 23.5802 104.665 21.8403L106.26 7.78911C106.47 5.94109 105.024 4.32227 103.165 4.32227H99.6099C98.1421 4.32227 96.9338 5.4773 96.8738 6.9439C96.6994 11.2069 96.5325 16.129 96.3757 21.4449C96.3344 22.8433 97.3535 24.0482 98.7392 24.2409L101.141 24.5748Z" fill="#E0E0E0"/>
        <path fill-rule="evenodd" clip-rule="evenodd" d="M80.1937 4.32227C78.554 4.32227 77.1946 5.59368 77.085 7.2298L76.3499 18.2077C76.2403 19.8387 77.4101 21.2766 79.0289 21.5022L91.1065 23.1805C92.7247 23.4054 94.1794 22.175 94.2297 20.5421C94.3768 15.7641 94.5374 11.2327 94.7124 7.19805C94.7803 5.63216 93.5316 4.32227 91.9643 4.32227H80.1937Z" fill="#E0E0E0"/>
        <path fill-rule="evenodd" clip-rule="evenodd" d="M11.5628 64.9723C12.0728 63.3997 11.0866 61.7365 9.46211 61.4295L-0.658504 59.5171C-2.3483 59.1978 -3.91199 60.4937 -3.91199 62.2134V112.091C-3.91199 112.134 -3.88257 112.171 -3.84067 112.182C-3.79275 112.194 -3.74377 112.167 -3.72853 112.12L11.5628 64.9723Z" fill="#E0E0E0"/>
        <path fill-rule="evenodd" clip-rule="evenodd" d="M235.426 44.6051L286.734 59.1874C287.479 59.3993 288.257 58.9662 288.475 58.2224C290.709 50.5818 292.829 43.3306 294.812 36.5449C295.266 34.9897 294.282 33.3815 292.69 33.0795L242.762 23.6064C241.38 23.344 240.023 24.1703 239.621 25.519L234.46 42.8457C234.236 43.5989 234.671 44.3903 235.426 44.6051Z" fill="#E0E0E0"/>
        <path fill-rule="evenodd" clip-rule="evenodd" d="M303.695 6.12632C303.958 5.22393 303.281 4.32227 302.34 4.32227H246.987C246.364 4.32227 245.814 4.73238 245.636 5.32988L241.818 18.1471C241.354 19.7053 242.339 21.3231 243.936 21.6262L293.824 31.0918C295.212 31.3552 296.573 30.5208 296.97 29.1646C299.499 20.5052 301.763 12.7507 303.695 6.12632Z" fill="#E0E0E0"/>
        <path fill-rule="evenodd" clip-rule="evenodd" d="M308.905 80.4407C309.117 79.6918 308.682 78.9127 307.933 78.6993L298.263 75.9511C297.518 75.7392 296.743 76.1623 296.526 76.9061C295.478 80.4892 294.41 84.1402 293.325 87.8466C292.894 89.3206 293.756 90.8617 295.238 91.2651L302.457 93.2301C303.908 93.6252 305.407 92.7781 305.818 91.3309L308.905 80.4407Z" fill="#E0E0E0"/>
        <path fill-rule="evenodd" clip-rule="evenodd" d="M288.06 105.85C287.836 106.613 288.286 107.413 289.054 107.614L299.027 110.228C299.769 110.422 300.531 109.987 300.741 109.248L303.733 98.6943C304.149 97.2254 303.286 95.6992 301.813 95.2982L294.532 93.3165C293.09 92.9238 291.598 93.7583 291.178 95.1932C290.151 98.7027 289.112 102.253 288.06 105.85Z" fill="#E0E0E0"/>
        <path fill-rule="evenodd" clip-rule="evenodd" d="M311.216 111.938C311.001 112.698 311.451 113.486 312.215 113.686L322.096 116.276C322.86 116.477 323.64 116.01 323.824 115.243L326.354 104.742C326.702 103.299 325.839 101.841 324.407 101.452L317.54 99.5824C316.089 99.1873 314.59 100.034 314.179 101.482L311.216 111.938Z" fill="#E0E0E0"/>
        <path fill-rule="evenodd" clip-rule="evenodd" d="M330.728 86.589C330.905 85.8538 330.47 85.1092 329.742 84.9024L321.046 82.4309C320.297 82.2183 319.516 82.6529 319.304 83.4025L316.266 94.1202C315.85 95.5889 316.712 97.115 318.185 97.516L324.758 99.3054C326.251 99.7118 327.784 98.8045 328.147 97.3005L330.728 86.589Z" fill="#E0E0E0"/>
        <path fill-rule="evenodd" clip-rule="evenodd" d="M231.861 6.13497C232.131 5.23114 231.453 4.32227 230.51 4.32227H226.183C224.974 4.32227 223.908 5.11316 223.557 6.26983L214.21 37.0853C213.721 38.6986 214.789 40.3675 216.458 40.5996L219.058 40.961C220.401 41.1477 221.679 40.3257 222.066 39.0264L231.861 6.13497Z" fill="#E0E0E0"/>
        <path fill-rule="evenodd" clip-rule="evenodd" d="M307.47 39.4869C307.043 40.9482 307.888 42.4777 309.352 42.8952L316.145 44.8328C317.604 45.2489 319.124 44.402 319.538 42.9423L325.242 22.8193C325.647 21.3906 324.841 19.8989 323.425 19.4534L316.842 17.3834C315.375 16.9221 313.816 17.7556 313.385 19.2319C311.598 25.3535 309.616 32.1433 307.47 39.4869Z" fill="#E0E0E0"/>
        <path fill-rule="evenodd" clip-rule="evenodd" d="M329.972 6.11695C330.227 5.21673 329.551 4.32227 328.615 4.32227H318.785C318.158 4.32227 317.608 4.73094 317.433 5.33277C316.835 7.38493 316.197 9.5747 315.523 11.8845C315.105 13.3181 315.91 14.823 317.335 15.2709L323.862 17.3233C325.337 17.7871 326.903 16.9414 327.325 15.454L329.972 6.11695Z" fill="#E0E0E0"/>
        <path fill-rule="evenodd" clip-rule="evenodd" d="M300.961 61.7462C300.742 62.498 301.174 63.2894 301.928 63.5035L311.472 66.2164C312.221 66.429 313.001 65.9937 313.214 65.2448L317.45 50.3004C317.862 48.8441 317.018 47.3286 315.562 46.9134L308.709 44.9587C307.258 44.5449 305.746 45.3797 305.322 46.8277C303.925 51.6088 302.47 56.587 300.961 61.7462Z" fill="#E0E0E0"/>
        <path fill-rule="evenodd" clip-rule="evenodd" d="M71.51 145.86L130.1 138.588C131.316 138.437 132.331 137.587 132.693 136.416L152.016 73.883C152.513 72.2728 154.201 71.3503 155.825 71.8008L170.175 75.7808C171.783 76.2269 173.458 75.326 173.972 73.7381L180.862 52.4455C181.458 50.6026 180.246 48.6673 178.326 48.4006L132.403 42.0183C130.655 41.7754 129.054 43.0324 128.875 44.7882L125.453 78.382C125.286 80.026 123.864 81.2528 122.215 81.1785L75.325 79.0782C73.6326 79.0026 72.1904 80.2927 72.0765 81.9822L68.0179 142.56C67.8868 144.512 69.5676 146.101 71.51 145.86Z" fill="#B7EF96"/>
        <path fill-rule="evenodd" clip-rule="evenodd" d="M211.895 7.46102C212.369 5.89867 211.199 4.32227 209.567 4.32227C208.512 4.32227 207.577 5.00226 207.252 6.006L197.931 34.8108C197.412 36.4156 198.468 38.1001 200.139 38.3322C201.461 38.5159 202.72 37.7103 203.107 36.433L211.895 7.46102Z" fill="#E0E0E0"/>
        <path fill-rule="evenodd" clip-rule="evenodd" d="M76.1888 68.2975L90.3684 68.9323C91.9142 69.0014 93.2113 67.782 93.2356 66.2348C93.3529 58.7651 93.5233 49.0647 93.7474 39.1016C93.7787 37.7081 92.7615 36.5115 91.3809 36.3196L78.6033 34.5437C76.813 34.2951 75.1869 35.6177 75.0666 37.4217L73.22 64.977C73.1032 66.7205 74.4431 68.219 76.1888 68.2975Z" fill="#E0E0E0"/>
        <path fill-rule="evenodd" clip-rule="evenodd" d="M112.493 69.925C114.144 69.9992 115.565 68.7718 115.732 67.1284L118.182 43.0768C118.352 41.4089 117.172 39.9054 115.512 39.6748L99.0167 37.3827C97.3924 37.157 95.934 38.3969 95.8971 40.0364C95.6972 48.9335 95.5258 58.0625 95.3921 66.4942C95.3685 67.9779 96.5297 69.2102 98.0121 69.2765L112.493 69.925Z" fill="#E0E0E0"/>
        <path fill-rule="evenodd" clip-rule="evenodd" d="M52.4375 126.213C54.3209 126.682 56.1703 125.334 56.2994 123.398L57.4689 105.952C57.5575 104.629 56.6881 103.433 55.403 103.108L16.4447 93.2676C15.0437 92.9137 13.6084 93.707 13.1626 95.0815L7.66752 112.025C7.17694 113.537 8.07077 115.149 9.61372 115.534L52.4375 126.213Z" fill="#E0E0E0"/>
        <path fill-rule="evenodd" clip-rule="evenodd" d="M59.6312 73.6976C59.7365 72.1249 58.6496 70.7209 57.1007 70.4282L25.9308 64.5389C24.3898 64.2477 22.8726 65.1473 22.389 66.6385L15.5288 87.7902C15.0392 89.2997 15.9284 90.9086 17.467 91.2972L54.5797 100.671C56.2402 101.091 57.875 99.9032 57.9895 98.1944L59.6312 73.6976Z" fill="#E0E0E0"/>
        <path fill-rule="evenodd" clip-rule="evenodd" d="M118.025 26.9209L183.473 36.0161C184.97 36.2237 186.401 35.3278 186.866 33.8892L195.272 7.9111C195.846 6.13878 194.524 4.32227 192.661 4.32227H120.314C118.729 4.32227 117.397 5.51224 117.219 7.08637L115.358 23.4836C115.167 25.163 116.35 26.6881 118.025 26.9209Z" fill="#E0E0E0"/>
        <path fill-rule="evenodd" clip-rule="evenodd" d="M335.285 119.727L346.051 122.548C346.945 122.783 347.819 122.109 347.819 121.185V109.915C347.819 108.677 346.99 107.593 345.795 107.267L340.142 105.729C338.65 105.322 337.116 106.229 336.754 107.733L334.272 118.033C334.092 118.779 334.542 119.533 335.285 119.727Z" fill="#E0E0E0"/>
        <path fill-rule="evenodd" clip-rule="evenodd" d="M347.819 91.1064C347.819 90.4765 347.4 89.923 346.794 89.7507L342.867 88.6342C342.096 88.4151 341.299 88.8815 341.111 89.6599L338.547 100.3C338.2 101.742 339.062 103.2 340.494 103.59L344.354 104.641C346.1 105.116 347.819 103.802 347.819 101.993V91.1064Z" fill="#E0E0E0"/>
        <path fill-rule="evenodd" clip-rule="evenodd" d="M177.864 72.2506L177.944 72.002C177.946 72.0142 177.947 72.0265 177.947 72.0387C177.947 72.1108 177.918 72.1814 177.864 72.2506Z" fill="#C5BDAB"/>
        <path fill-rule="evenodd" clip-rule="evenodd" d="M213.256 299.812C213.253 299.812 213.25 299.812 213.246 299.812L220.089 287.959C220.923 286.515 221.304 284.983 221.306 283.49C221.307 284.989 220.927 286.526 220.089 287.976L213.256 299.812Z" fill="#C5BDAB"/>
        <path fill-rule="evenodd" clip-rule="evenodd" d="M212.31 301.447V301.43L213.246 299.811C213.249 299.811 213.252 299.811 213.256 299.811L212.31 301.447Z" fill="#ADA898"/>
        <path fill-rule="evenodd" clip-rule="evenodd" d="M49.4124 120.765C49.4096 120.765 49.406 120.765 49.4031 120.765L56.2459 108.912C57.0799 107.468 57.4611 105.936 57.4626 104.443C57.464 105.941 57.0835 107.479 56.2459 108.929L49.4124 120.765Z" fill="#C5BDAB"/>
        <path fill-rule="evenodd" clip-rule="evenodd" d="M48.4669 122.401V122.383L49.4025 120.764C49.4053 120.764 49.409 120.764 49.4118 120.764L48.4669 122.401Z" fill="#ADA898"/>
        <!-- <path fill-rule="evenodd" clip-rule="evenodd" d="M316.152 47.0889L316.15 47.0881C316.191 46.7451 316.211 46.4027 316.211 46.0625C316.212 46.4027 316.192 46.7458 316.152 47.0889Z" fill="#D5D6D1"/> -->
        <!-- <path fill-rule="evenodd" clip-rule="evenodd" d="M308.163 62.3799C308.16 62.3799 308.157 62.3799 308.154 62.3799L314.997 50.527C315.64 49.412 316.014 48.2444 316.152 47.084L316.154 47.0847C316.018 48.2509 315.644 49.4243 314.997 50.5443L308.163 62.3799Z" fill="#C5BDAB"/> -->
        <!-- <path fill-rule="evenodd" clip-rule="evenodd" d="M307.218 64.0197V64.0024L308.153 62.3828C308.156 62.3828 308.16 62.3828 308.162 62.3828L307.218 64.0197Z" fill="#ADA898"/> -->
        <!-- <path fill-rule="evenodd" clip-rule="evenodd" d="M334.759 242.013L334.75 242.011L336.992 238.128L337.001 238.13L334.759 242.013ZM338.911 234.161L338.907 234.159C339.097 233.43 339.187 232.695 339.189 231.969C339.189 232.695 339.1 233.43 338.911 234.161Z" fill="#D5D6D1"/> -->
        <!-- <path fill-rule="evenodd" clip-rule="evenodd" d="M336.999 238.126L336.991 238.123L337.971 236.426C338.398 235.686 338.707 234.923 338.906 234.154L338.91 234.156C338.711 234.93 338.401 235.698 337.971 236.443L336.999 238.126Z" fill="#E2B868"/> -->
        <!-- <path fill-rule="evenodd" clip-rule="evenodd" d="M331.137 248.281C331.134 248.281 331.13 248.28 331.127 248.28L334.749 242.008L334.757 242.01L331.137 248.281Z" fill="#C5BDAB"/> -->
        <!-- <path fill-rule="evenodd" clip-rule="evenodd" d="M330.191 249.919V249.902L331.127 248.281C331.13 248.281 331.133 248.282 331.136 248.282L330.191 249.919Z" fill="#ADA898"/> -->
    </g>
    <path fill-rule="evenodd" clip-rule="evenodd" d="M218.26 313.397C196.744 307.439 176.513 301.838 157.563 296.595L183.821 197.961L247.213 214.581C236.499 251.155 226.319 285.898 218.26 313.397ZM46.1826 265.81L61.8915 169.243L61.9081 169.142L61.9715 168.193L179.629 196.9L153.395 295.442C111.123 283.745 75.3718 273.864 46.1826 265.81ZM223.232 50.2694L180.802 192.736L62.2656 163.813L71.2887 29.1541L223.232 50.2694ZM289.819 69.0488C277.629 110.726 262.617 161.992 248.429 210.43L184.997 193.799L227.431 51.3167L289.819 69.0488ZM388.836 251.712L389.933 247.528L252.615 211.527C266.832 162.992 281.813 111.827 293.979 70.2315L386.391 96.4967L387.573 92.3372L295.193 66.0807C309.262 17.9723 319.278 -16.3603 319.428 -17.1163L315.201 -18.0252C314.856 -16.6327 304.916 17.4324 291.033 64.8979L228.666 47.1723L250.188 -25.0915L246.044 -26.3262L224.48 46.0768L71.5785 24.8281L74.4082 -17.396L70.0937 -17.685L64.683 63.0549L-1.40108 50.5686L-40.4402 24.8858L-42.8172 28.499L-3.05449 54.6574L64.3918 67.4004L60.0255 132.559L-33.8979 109.137L-34.9444 113.333L59.7314 136.943L57.6066 168.649L41.9892 264.653C-19.1634 247.782 -50.2165 239.289 -50.7585 239.289V241.762L-51.1427 243.578C-49.3668 243.954 -11.1825 254.457 41.2829 268.943L9.13856 388.405L13.3146 389.528L45.4518 270.094C77.6732 278.992 114.918 289.291 152.28 299.629L131.331 378.32L135.51 379.432L156.448 300.782C176.937 306.452 197.404 312.117 217.042 317.554C207.59 349.803 201.34 371.125 201.077 372.021L205.227 373.238C207.523 365.403 213.345 345.546 221.21 318.708C296.974 339.686 359.349 356.975 360.937 357.415L362.093 353.248C310.794 339.029 264.232 326.127 222.429 314.551C230.581 286.732 240.744 252.051 251.399 215.679L388.836 251.712Z" fill="#F9CC75"/>
  </g>
    <!-- <rect y="225.008" width="343" height="136.285" fill="url(#paint0_linear_1366_33315)"/>
    <rect width="343" height="121.651" transform="matrix(1 0 0 -1 0 121.65)" fill="url(#paint1_linear_1366_33315)"/>
    <defs>
      <linearGradient id="paint0_linear_1366_33315" x1="171.5" y1="225.008" x2="171.5" y2="361.293" gradientUnits="userSpaceOnUse">
        <stop stop-color="white" stop-opacity="0"/>
        <stop offset="1" stop-color="white"/>
      </linearGradient>
      <linearGradient id="paint1_linear_1366_33315" x1="171.5" y1="0" x2="171.5" y2="121.651" gradientUnits="userSpaceOnUse">
        <stop stop-color="white" stop-opacity="0"/>
        <stop offset="1" stop-color="white"/>
      </linearGradient>
    </defs> -->
</svg>
