<svg width="50" height="53" viewBox="0 0 50 53" fill="none" xmlns="http://www.w3.org/2000/svg">
<path d="M23.7627 1.80202C24.1493 0.610099 25.8355 0.610104 26.2221 1.80202L31.1722 17.0653C31.3451 17.5983 31.8416 17.9593 32.4019 17.9593H48.426C49.6777 17.9593 50.1988 19.5606 49.1867 20.2972L36.2189 29.7365C35.7666 30.0657 35.5774 30.6484 35.75 31.1805L40.7023 46.4505C41.0887 47.642 39.7245 48.6316 38.7118 47.8945L25.7532 38.462C25.2997 38.1319 24.6851 38.1319 24.2316 38.462L11.273 47.8945C10.2603 48.6316 8.89614 47.642 9.28254 46.4505L14.2348 31.1805C14.4074 30.6484 14.2182 30.0657 13.7659 29.7365L0.798068 20.2972C-0.21395 19.5606 0.307122 17.9593 1.55885 17.9593H17.5829C18.1432 17.9593 18.6397 17.5983 18.8126 17.0653L23.7627 1.80202Z" fill="#FFD15B"/>
<path d="M23.7642 1.80341C24.1511 0.609638 25.8377 0.609638 26.2235 1.80341L26.8941 3.87786C26.8022 3.59306 26.5851 3.42136 26.3427 3.36278C25.9791 3.27593 25.5579 3.44762 25.4186 3.87786L21.1384 17.074C20.9656 17.6072 20.4475 18.0314 19.888 18.0314L17.9075 18.0213V17.9203C18.3286 17.8112 18.6761 17.4941 18.8144 17.0659L23.7642 1.80341Z" fill="#FFB545"/>
<path d="M38.7183 47.9058C39.7351 48.6413 41.0967 47.6459 40.7037 46.4545L40.0208 44.3841C40.1147 44.6682 40.0407 44.935 39.8796 45.1253C39.6373 45.41 39.196 45.5199 38.8296 45.2548L27.5866 37.1276C27.1325 36.799 26.4639 36.7623 26.0122 37.0925L24.4193 38.2694L24.4789 38.351C24.8832 38.1905 25.3509 38.2415 25.7153 38.5055L38.7183 47.9058Z" fill="#FFB545"/>
<path d="M4.12972 17.9551H1.55885C0.307122 17.9551 -0.21395 19.5564 0.798068 20.293L13.7659 29.7323C14.2182 30.0615 14.4074 30.6442 14.2348 31.1763L9.28254 46.4464C8.89614 47.6378 10.2603 48.6275 11.273 47.8904L13.2763 46.4322C13.2978 46.4193 13.3192 46.4053 13.3402 46.39L17.437 43.4201V43.4036L13.2763 46.4322C12.6766 46.7896 11.9229 46.2114 12.1475 45.5219L17.113 30.2729C17.2867 29.7396 17.0966 29.1551 16.6426 28.826L3.64402 19.4026C3.03534 18.9613 3.34748 17.999 4.09928 17.999H4.12972L4.12972 17.9551Z" fill="#FFB545"/>
</svg>
